<?xml version="1.0" standalone="no"?>
<!DOCTYPE svg PUBLIC "-//W3C//DTD SVG 20010904//EN"
 "http://www.w3.org/TR/2001/REC-SVG-20010904/DTD/svg10.dtd">
<svg version="1.0" xmlns="http://www.w3.org/2000/svg"
 width="500.000000pt" height="500.000000pt" viewBox="0 0 500.000000 500.000000"
 preserveAspectRatio="xMidYMid meet">
<metadata>
Created by potrace 1.14, written by Peter Selinger 2001-2017
</metadata>
<g transform="translate(0.000000,500.000000) scale(0.100000,-0.100000)"
fill="#000000" stroke="none">
<path d="M4943 4815 c-93 -28 -147 -83 -158 -161 -23 -175 -195 -800 -257
-934 -11 -24 -24 -54 -28 -66 -11 -29 -95 -159 -117 -181 -10 -10 -34 -39 -53
-63 -36 -46 -52 -66 -113 -135 l-35 -39 -32 104 c-18 58 -34 108 -36 111 -2 3
14 18 34 34 51 38 73 70 76 108 2 18 13 55 26 82 78 171 73 296 -18 417 -84
112 -170 129 -342 70 -123 -43 -202 -96 -247 -167 -28 -45 -40 -52 -58 -37
-27 23 -213 82 -305 96 -19 3 -46 8 -60 10 -131 22 -526 28 -656 10 -54 -8
-125 -28 -182 -50 l-93 -38 -47 50 c-87 91 -221 180 -322 214 -72 25 -197 33
-245 17 -146 -49 -217 -276 -146 -466 21 -55 88 -131 117 -131 8 0 22 -17 31
-37 38 -88 50 -107 85 -133 l37 -27 -27 -44 c-15 -24 -34 -57 -41 -72 l-15
-28 -49 76 c-60 94 -115 204 -166 333 -45 114 -52 139 -137 437 -22 75 -19 65
-32 98 -7 16 -12 33 -12 39 0 17 -111 224 -162 303 -65 99 -86 121 -141 145
-60 27 -183 29 -278 6 -186 -45 -286 -50 -474 -20 -153 23 -149 23 -153 -6 -4
-36 43 -115 104 -177 60 -61 127 -86 267 -100 68 -7 64 -19 -15 -47 -107 -38
-280 -153 -404 -269 l-64 -59 0 -1523 0 -1524 53 -15 c105 -30 178 -39 318
-39 64 1 136 4 160 7 24 3 64 8 89 11 47 6 154 29 180 40 11 3 42 -22 97 -77
139 -141 213 -223 213 -234 0 -6 -6 -27 -14 -46 -15 -36 -102 -310 -110 -350
-3 -12 -19 -73 -35 -135 -17 -61 -33 -132 -36 -157 l-7 -46 2046 0 2046 0 0
200 c0 109 -4 209 -10 222 -5 13 -47 124 -94 248 -46 124 -90 239 -97 255 -7
17 -13 32 -13 35 -1 5 -59 152 -81 205 -7 17 -23 57 -36 90 -12 33 -35 86 -50
118 -15 31 -26 57 -24 57 2 0 21 -12 42 -26 80 -54 198 -107 316 -139 l47 -13
0 1783 c0 981 -3 1786 -7 1788 -5 3 -27 -1 -50 -8z"/>
</g>
</svg>
